<svg width="98" height="98" viewBox="0 0 98 98" fill="none" xmlns="http://www.w3.org/2000/svg">
<path d="M8.00342 4.45312H89.7639V85.458H8.00342V4.45312Z" fill="url(#paint0_radial)"/>
<g filter="url(#filter0_d)">
<path d="M8.00341 4.45367H89.7639V85.4586H8.00341V4.45367ZM4.28784 89.2423H93.4973V0.669922H4.28784V89.2423ZM62.7188 32.2496C62.7188 31.9404 62.826 31.7949 63.1654 31.7949H69.0067C69.3104 31.7949 69.4533 31.904 69.4533 32.2496V62.1194C69.4533 62.4286 69.3818 62.5742 69.0067 62.5742H63.2368C62.8617 62.5742 62.7545 62.3923 62.7545 62.083V32.2496H62.7188ZM62.3079 23.6453C62.3079 21.2258 63.9871 19.7888 66.095 19.7888C68.3636 19.7888 69.882 21.335 69.882 23.6453C69.882 26.1374 68.2922 27.5018 66.0235 27.5018C63.8799 27.52 62.3079 26.1556 62.3079 23.6453ZM45.5879 44.6923C44.5518 40.4902 42.0866 31.3401 41.1578 26.9015H41.0863C40.3003 31.3219 38.3353 38.8166 36.7812 44.6923H45.5879ZM35.2629 50.8227L32.3333 62.174C32.2618 62.4832 32.1546 62.556 31.7795 62.556H26.3133C25.9382 62.556 25.8667 62.4468 25.9382 61.9921L36.4954 24.3729C36.6741 23.6998 36.7991 23.0813 36.8706 21.2258C36.8706 20.953 36.9777 20.8438 37.1742 20.8438H44.9805C45.2485 20.8438 45.3556 20.9166 45.4271 21.2258L57.2526 62.0648C57.3241 62.3741 57.2526 62.556 56.9489 62.556H50.7861C50.4824 62.556 50.3038 62.4832 50.2323 62.2104L47.1777 50.8227H35.2629Z" fill="#FF7F18"/>
</g>
<defs>
<filter id="filter0_d" x="0.287842" y="0.669922" width="97.2095" height="96.5724" filterUnits="userSpaceOnUse" color-interpolation-filters="sRGB">
<feFlood flood-opacity="0" result="BackgroundImageFix"/>
<feColorMatrix in="SourceAlpha" type="matrix" values="0 0 0 0 0 0 0 0 0 0 0 0 0 0 0 0 0 0 127 0"/>
<feOffset dy="4"/>
<feGaussianBlur stdDeviation="2"/>
<feColorMatrix type="matrix" values="0 0 0 0 0 0 0 0 0 0 0 0 0 0 0 0 0 0 0.25 0"/>
<feBlend mode="normal" in2="BackgroundImageFix" result="effect1_dropShadow"/>
<feBlend mode="normal" in="SourceGraphic" in2="effect1_dropShadow" result="shape"/>
</filter>
<radialGradient id="paint0_radial" cx="0" cy="0" r="1" gradientUnits="userSpaceOnUse" gradientTransform="translate(34.958 22.6304) scale(62.1406 61.2673)">
<stop stop-color="#423325" stop-opacity="0.98"/>
<stop offset="1" stop-color="#1C0A00"/>
</radialGradient>
</defs>
</svg>
